<svg 
    xmlns:xlink="http://www.w3.org/1999/xlink" 
    version="1.1" 
    id="Capa_1" 
    x="0px" 
    y="0px" 
    viewBox="0 0 512 512" 
    style="enable-background:new 0 0 512 512;" 
    xml:space="preserve"><g><path d="M256,78.2c8.284,0,15-6.716,15-15V15c0-8.284-6.716-15-15-15s-15,6.716-15,15v48.2C241,71.484,247.716,78.2,256,78.2z" fill="#000000" style="fill: rgb(0, 163, 255);"></path><path d="M256,433.8c-8.284,0-15,6.716-15,15V497c0,8.284,6.716,15,15,15s15-6.716,15-15v-48.2C271,440.516,264.284,433.8,256,433.8 z" fill="#000000" style="fill: rgb(0, 163, 255);"></path><path d="M497,241h-48.2c-8.284,0-15,6.716-15,15s6.716,15,15,15H497c8.284,0,15-6.716,15-15S505.284,241,497,241z" fill="#000000" style="fill: rgb(0, 163, 255);"></path><path d="M78.2,256c0-8.284-6.716-15-15-15H15c-8.284,0-15,6.716-15,15s6.716,15,15,15h48.2C71.484,271,78.2,264.284,78.2,256z" fill="#000000" style="fill: rgb(0, 163, 255);"></path><path d="M402.94,130.272l34.077-34.077c5.858-5.858,5.858-15.355,0-21.213c-5.857-5.858-15.355-5.858-21.213,0l-34.077,34.077 c-5.858,5.858-5.858,15.355,0,21.213C387.583,136.129,397.082,136.132,402.94,130.272z" fill="#000000" style="fill: rgb(0, 163, 255);"></path><path d="M109.06,381.728l-34.077,34.077c-5.858,5.858-5.858,15.355,0,21.213c5.856,5.857,15.355,5.859,21.213,0l34.077-34.077 c5.858-5.858,5.858-15.355,0-21.213C124.415,375.869,114.917,375.869,109.06,381.728z" fill="#000000" style="fill: rgb(0, 163, 255);"></path><path d="M402.94,381.728c-5.857-5.858-15.355-5.858-21.213,0c-5.858,5.858-5.858,15.355,0,21.213l34.077,34.077 c5.856,5.857,15.355,5.859,21.213,0c5.858-5.858,5.858-15.355,0-21.213L402.94,381.728z" fill="#000000" style="fill: rgb(0, 163, 255);"></path><path d="M109.06,130.272c5.856,5.857,15.355,5.859,21.213,0c5.858-5.858,5.858-15.355,0-21.213L96.195,74.982 c-5.857-5.858-15.355-5.858-21.213,0c-5.858,5.858-5.858,15.355,0,21.213L109.06,130.272z" fill="#000000" style="fill: rgb(0, 163, 255);"></path><path d="M256,128.533c-70.285,0-127.467,57.182-127.467,127.467S185.715,383.467,256,383.467S383.467,326.285,383.467,256 S326.285,128.533,256,128.533z M256,353.467c-53.743,0-97.467-43.724-97.467-97.467s43.724-97.467,97.467-97.467 s97.467,43.724,97.467,97.467S309.743,353.467,256,353.467z" 
    fill="#000000" 
    style="fill: rgb(0, 163, 255);">
    </path>
    </g>
</svg>